<svg width="36" height="36" viewBox="0 0 36 36" fill="none" xmlns="http://www.w3.org/2000/svg">
<path fill-rule="evenodd" clip-rule="evenodd" d="M26.4279 35.2373H8.80931C6.47297 35.2372 4.23235 34.309 2.5803 32.657C0.928257 31.0049 0.000102208 28.7643 0 26.4279L0 8.80931C0.000102208 6.47297 0.928257 4.23235 2.5803 2.5803C4.23235 0.928257 6.47297 0.000102208 8.80931 0L26.4279 0C28.7643 0 31.005 0.928122 32.6571 2.58019C34.3091 4.23225 35.2373 6.47294 35.2373 8.80931V26.4279C35.2373 28.7643 34.3091 31.005 32.6571 32.6571C31.005 34.3091 28.7643 35.2373 26.4279 35.2373Z" fill="white"/>
<path d="M21.5106 6.72364C21.4972 7.76376 21.1065 8.76361 20.411 9.53712C20.0859 9.96831 19.6753 10.3278 19.205 10.5932C18.7347 10.8585 18.2147 11.024 17.6775 11.0793C17.6259 11.0804 17.5746 11.0711 17.5267 11.0521C17.4787 11.0331 17.435 11.0047 17.3982 10.9686C17.3613 10.9325 17.3321 10.8895 17.3121 10.8419C17.2921 10.7943 17.2818 10.7433 17.2818 10.6917H17.2763C17.3115 9.63471 17.7255 8.62562 18.4428 7.84848C18.8408 7.40198 19.3239 7.03941 19.8638 6.782C20.252 6.58657 20.6657 6.44664 21.0929 6.36631C21.1443 6.35846 21.1969 6.36183 21.247 6.37618C21.2971 6.39053 21.3434 6.41552 21.3829 6.44945C21.4225 6.48338 21.4542 6.52545 21.4759 6.57277C21.4977 6.62009 21.509 6.67156 21.509 6.72364H21.5106ZM25.3903 21.9902C25.0971 22.6731 24.7349 23.3244 24.3093 23.9337C23.9088 24.5445 23.4417 25.109 22.9168 25.6169C22.4396 26.0937 21.8013 26.375 21.1274 26.4053C20.5562 26.3802 19.9951 26.2462 19.4742 26.0105C18.912 25.7655 18.3076 25.6318 17.6944 25.6169C17.0648 25.6294 16.4434 25.763 15.8643 26.0105C15.364 26.2362 14.8295 26.3767 14.2829 26.4262C13.939 26.422 13.5995 26.3482 13.2849 26.209C12.9704 26.0699 12.6873 25.8685 12.4528 25.6169C11.9048 25.0912 11.4164 24.5068 10.9963 23.8743C10.3399 22.9331 9.82124 21.9031 9.45614 20.8152C9.03963 19.6441 8.82096 18.4117 8.80909 17.1687C8.77599 15.9494 9.07845 14.7444 9.68347 13.6852C10.1245 12.9206 10.7552 12.2827 11.5147 11.833C12.2635 11.385 13.1179 11.1439 13.9905 11.1344C14.6494 11.1734 15.297 11.3242 15.9054 11.5803C16.3904 11.7939 16.9009 11.944 17.4243 12.0268C18.0014 11.9066 18.5655 11.7303 19.1084 11.5005C19.8344 11.2055 20.6145 11.0671 21.3977 11.0942C22.4461 11.1447 23.4555 11.5072 24.2965 12.1353C24.4135 12.2329 24.5083 12.3545 24.5743 12.4919C24.6403 12.6292 24.676 12.7792 24.6791 12.9315C24.6821 13.0839 24.6524 13.2352 24.592 13.3751C24.5315 13.515 24.4417 13.6403 24.3287 13.7425C23.8792 14.1433 23.5234 14.6382 23.2867 15.192C23.05 15.7458 22.9382 16.3449 22.9591 16.9468C22.9515 17.5482 23.0719 18.1443 23.3121 18.6956C23.5524 19.2469 23.9071 19.7408 24.3528 20.1446C24.548 20.3307 24.7589 20.4996 24.9832 20.6495C25.1948 20.7905 25.3507 21.0008 25.4241 21.2442C25.4974 21.4877 25.4836 21.7492 25.3851 21.9836C25.3915 21.9874 25.3909 21.9891 25.3903 21.9902Z" fill="#3A3A3A"/>
</svg>
