<svg width="16" height="18" viewBox="0 0 16 18" fill="none" xmlns="http://www.w3.org/2000/svg">
<path d="M9.07045 0C10.6802 0 11.9852 1.23122 11.9852 2.75V4.83414C11.9852 5.14214 11.7206 5.39183 11.3941 5.39183C11.0677 5.39183 10.803 5.14214 10.803 4.83414V2.75C10.803 1.84723 10.0273 1.11538 9.07045 1.11538H2.91477C1.95791 1.11538 1.18222 1.84723 1.18222 2.75V15.25C1.18222 16.1528 1.95791 16.8846 2.91477 16.8846H9.07045C10.0273 16.8846 10.803 16.1528 10.803 15.25V12.1106C10.803 11.8026 11.0677 11.5529 11.3941 11.5529C11.7206 11.5529 11.9852 11.8026 11.9852 12.1106V15.25C11.9852 16.7688 10.6802 18 9.07045 18H2.91477C1.30499 18 0 16.7688 0 15.25V2.75C8.40556e-08 1.23122 1.30499 0 2.91477 0H9.07045ZM7.84679 4.79827C8.02048 4.79827 8.18708 4.86335 8.30991 4.97923C8.43273 5.09511 8.50171 5.25229 8.50171 5.41617C8.50171 5.58004 8.43273 5.73722 8.30991 5.8531L6.15743 7.87771H15.3477C15.5207 7.87771 15.6866 7.94255 15.8089 8.05796C15.9313 8.17336 16 8.32988 16 8.49309C16 8.6563 15.9313 8.81282 15.8089 8.92822C15.6866 9.04363 15.5207 9.10847 15.3477 9.10847H6.15743L8.30991 11.1331C8.37104 11.1903 8.41955 11.2584 8.45267 11.3333C8.48578 11.4083 8.50283 11.4888 8.50283 11.57C8.50283 11.6513 8.48578 11.7317 8.45267 11.8067C8.41955 11.8817 8.37104 11.9497 8.30991 12.0069C8.24927 12.0646 8.17712 12.1104 8.09764 12.1416C8.01815 12.1729 7.93289 12.189 7.84679 12.189C7.76068 12.189 7.67543 12.1729 7.59594 12.1416C7.51646 12.1104 7.44431 12.0646 7.38367 12.0069L4.12239 8.93003C4.06125 8.87282 4.01274 8.80475 3.97963 8.72976C3.94651 8.65477 3.92947 8.57433 3.92947 8.49309C3.92947 8.41185 3.94651 8.33141 3.97963 8.25642C4.01274 8.18143 4.06125 8.11336 4.12239 8.05615L7.38367 4.97923C7.50649 4.86335 7.67309 4.79827 7.84679 4.79827Z" fill="white"/>
</svg>
