<svg width="16" height="16" viewBox="0 0 16 16" fill="none" xmlns="http://www.w3.org/2000/svg">
<path d="M9.56634 2C10.213 2.00666 10.7397 2.33962 11.0463 2.93896C11.1255 3.09711 11.2359 3.32811 11.3515 3.57178L11.4911 3.86643L11.5597 4.0111L11.6263 4.1576C11.653 4.20422 11.6997 4.23751 11.7597 4.23751C13.3597 4.23751 14.6663 5.54273 14.6663 7.14095V11.0966C14.6663 12.6948 13.3597 14 11.7597 14H4.23967C2.63301 14 1.33301 12.6948 1.33301 11.0966V7.14095C1.33301 5.54273 2.63301 4.23751 4.23967 4.23751C4.29301 4.23751 4.34634 4.21088 4.36634 4.1576L4.40634 4.07769C4.59301 3.68479 4.81967 3.20533 4.95301 2.93896C5.25967 2.33962 5.77967 2.00666 6.42634 2H9.56634ZM7.99967 6.26859C7.29967 6.26859 6.63967 6.54162 6.13967 7.04107C5.64634 7.54051 5.37301 8.19312 5.37967 8.88568C5.37967 9.58491 5.65301 10.2375 6.14634 10.737C6.64634 11.2297 7.29967 11.5028 7.99967 11.5028C8.71967 11.5028 9.37301 11.2098 9.84634 10.737C10.3197 10.2642 10.613 9.61154 10.6197 8.88568C10.6197 8.19312 10.3463 7.53385 9.85301 7.03441C9.35967 6.54162 8.69967 6.26859 7.99967 6.26859ZM7.99967 7.26748C8.43301 7.26748 8.83967 7.43396 9.14634 7.74029C9.45301 8.04662 9.61967 8.45283 9.61967 8.88568C9.61301 9.77802 8.89301 10.5039 7.99967 10.5039C7.56634 10.5039 7.15967 10.3374 6.85301 10.0311C6.54634 9.72475 6.37967 9.31853 6.37967 8.88568V8.87902C6.37301 8.45949 6.53967 8.05327 6.84634 7.74695C7.15967 7.43396 7.56634 7.26748 7.99967 7.26748ZM11.7397 6.10877C11.4063 6.10877 11.1397 6.3818 11.1397 6.71476C11.1397 7.04772 11.4063 7.3141 11.7397 7.3141C12.073 7.3141 12.3463 7.04772 12.3463 6.71476C12.3463 6.3818 12.073 6.10877 11.7397 6.10877Z" fill="#6F45F0"/>
</svg>
