<svg width="20" height="20" viewBox="0 0 20 20" fill="none" xmlns="http://www.w3.org/2000/svg">
<path d="M9.51964 9.06663C12.0233 9.06663 14.053 7.03699 14.053 4.53331C14.053 2.02963 12.0233 0 9.51964 0C7.01596 0 4.98633 2.02963 4.98633 4.53331C4.98633 7.03699 7.01596 9.06663 9.51964 9.06663Z" fill="white"/>
<path d="M10.4811 9.9733H8.55894C7.4314 9.97686 6.3156 10.2025 5.27525 10.6373C4.2349 11.0721 3.29037 11.7075 2.49561 12.5073C1.70084 13.3071 1.07139 14.2557 0.6432 15.2988C0.215011 16.3418 -0.00353438 17.459 4.32233e-05 18.5866C4.32233e-05 18.7068 0.0478049 18.8221 0.132821 18.9071C0.217837 18.9922 0.333144 19.0399 0.453375 19.0399H18.5866C18.7125 19.0285 18.8292 18.9697 18.9134 18.8754C18.9975 18.7812 19.0428 18.6585 19.04 18.5322C19.0352 16.2637 18.1319 14.0895 16.5278 12.4854C14.9238 10.8814 12.7496 9.97809 10.4811 9.9733Z" fill="white"/>
</svg>
