<svg width="18" height="23" viewBox="0 0 18 23" fill="none" xmlns="http://www.w3.org/2000/svg">
<path d="M6.2627 6.00391C9.71987 6.00391 12.5263 8.81052 12.5264 12.2666C12.5264 13.673 12.0622 14.9717 11.2793 16.0176L16.7373 21.4766C17.0871 21.8255 17.0871 22.3923 16.7373 22.7412C16.3884 23.091 15.8216 23.091 15.4727 22.7412L10.0127 17.2822C8.96677 18.0659 7.66827 18.5293 6.2627 18.5293C2.80655 18.5291 0 15.7235 0 12.2666C7.344e-05 8.81065 2.80659 6.00411 6.2627 6.00391ZM6.2627 7.79297C3.79437 7.79317 1.78914 9.79837 1.78906 12.2666C1.78906 14.7358 3.79432 16.74 6.2627 16.7402C8.73214 16.7402 10.7363 14.7359 10.7363 12.2666C10.7363 9.79825 8.73209 7.79297 6.2627 7.79297ZM15.9033 4.64355C15.9222 4.64355 15.9402 4.65354 15.9492 4.66992L16.6143 5.88672L17.8311 6.55273C17.8471 6.56183 17.8574 6.579 17.8574 6.59766C17.8572 6.61624 17.8471 6.63361 17.8311 6.64258L16.6143 7.30859L15.9492 8.52539C15.9402 8.54172 15.9221 8.55176 15.9033 8.55176C15.8847 8.55165 15.8674 8.54147 15.8584 8.52539L15.1934 7.30859L13.9756 6.64258C13.9593 6.63364 13.9494 6.61632 13.9492 6.59766C13.9492 6.57893 13.9594 6.5618 13.9756 6.55273L15.1934 5.88672L15.8584 4.66992C15.8674 4.65356 15.8846 4.64366 15.9033 4.64355ZM11.667 1.68848C11.6887 1.64941 11.7537 1.64924 11.7754 1.68848L12.7061 3.3916L14.4092 4.32324C14.4289 4.33411 14.4414 4.35548 14.4414 4.37793C14.4412 4.40017 14.4291 4.4208 14.4092 4.43164L12.7061 5.36328L11.7754 7.06641C11.7645 7.08611 11.7431 7.09863 11.7207 7.09863C11.6984 7.09856 11.6778 7.08598 11.667 7.06641L10.7354 5.36328L9.03223 4.43164C9.01268 4.42087 9.00023 4.40012 9 4.37793C9 4.35548 9.01256 4.33411 9.03223 4.32324L10.7354 3.3916L11.667 1.68848ZM14.9395 0.0205078C14.9543 -0.0068181 14.9994 -0.00693219 15.0146 0.0205078L15.499 0.905273L16.3838 1.38965C16.3974 1.39717 16.4062 1.41125 16.4062 1.42676C16.4062 1.44226 16.3974 1.45736 16.3838 1.46484L15.499 1.94824L15.0146 2.83301C15.0071 2.84657 14.9931 2.85538 14.9775 2.85547C14.9618 2.85547 14.947 2.84658 14.9395 2.83301L14.4561 1.94824L13.5713 1.46484C13.5577 1.4573 13.5489 1.44226 13.5488 1.42676C13.5489 1.41125 13.5577 1.39717 13.5713 1.38965L14.4561 0.905273L14.9395 0.0205078Z" fill="white"/>
</svg>
