<svg width="25" height="25" viewBox="0 0 25 25" fill="none" xmlns="http://www.w3.org/2000/svg">
<rect width="25" height="25" rx="3" fill="#272A31"/>
<path d="M17.2853 11.107L7.60346 7.08961C7.19558 6.92034 6.7348 6.9948 6.40091 7.28383C6.06702 7.57291 5.92738 8.0183 6.0365 8.44622L6.98792 12.1773L6.0365 15.9083C5.92738 16.3363 6.06699 16.7816 6.40088 17.0707C6.73541 17.3604 7.19631 17.4339 7.60346 17.2649L17.2853 13.2475C17.7262 13.0646 18 12.6545 18 12.1773C18 11.7 17.7262 11.2899 17.2853 11.107ZM17.0158 12.5981L7.33398 16.6155C7.17116 16.683 6.99442 16.6545 6.86113 16.5391C6.72786 16.4237 6.67431 16.2529 6.71785 16.0821L7.62392 12.5288H11.1176C11.3118 12.5288 11.4692 12.3714 11.4692 12.1773C11.4692 11.9831 11.3118 11.8257 11.1176 11.8257H7.62395L6.71785 8.2725C6.67431 8.10169 6.72786 7.93083 6.86113 7.81544C6.99439 7.70006 7.17109 7.67151 7.33395 7.73906L17.0158 11.7565C17.2766 11.8646 17.2969 12.1059 17.2969 12.1773C17.2969 12.2486 17.2766 12.4899 17.0158 12.5981Z" fill="white"/>
</svg>
