<svg width="19" height="19" viewBox="0 0 19 19" fill="none" xmlns="http://www.w3.org/2000/svg">
<path fill-rule="evenodd" clip-rule="evenodd" d="M17.5317 7.65094L19 8.21607V10.7865L17.4262 11.3922C17.2268 12.2309 16.8929 13.0308 16.4425 13.7659L17.1259 15.3087L15.3087 17.1259L13.7659 16.4425C13.0334 16.8955 12.2309 17.2268 11.3922 17.4262L10.7865 19H8.21607L7.61037 17.4262C6.76907 17.2268 5.96921 16.8929 5.23406 16.4425L3.69126 17.1259L1.87411 15.3087L2.56009 13.7659C2.1071 13.0334 1.77575 12.2309 1.57383 11.3922L0 10.7865V8.21607L1.57383 7.61037C1.77575 6.76907 2.1071 5.96921 2.56009 5.23406L1.87411 3.69126L3.69126 1.87411L5.23406 2.56009C5.96921 2.1071 6.76907 1.77575 7.60776 1.57645L8.21607 0H10.7865L11.3922 1.57645C12.2309 1.77575 13.0308 2.1071 13.7659 2.56009L15.3087 1.87411L16.0822 2.64757L14.62 5.17924C13.3907 3.72455 11.5522 2.80107 9.49806 2.80107C5.79773 2.80107 2.80107 5.79773 2.80107 9.49806C2.80107 13.1984 5.79773 16.1989 9.49806 16.1989C13.0331 16.1989 15.9294 13.4605 16.1812 9.98961L17.5317 7.65094ZM16.0973 3.88427L16.7046 2.83622C16.9899 2.34104 17.6261 2.16956 18.1212 2.45642L18.4818 2.66313C18.977 2.9484 19.1469 3.58621 18.8616 4.0814L18.2559 5.13103L16.0973 3.88427ZM10.5271 14.4112C10.6957 14.3651 10.8701 14.4646 10.9161 14.6332C10.9622 14.8018 10.8628 14.976 10.6942 15.0221C10.2922 15.132 9.83238 15.2294 9.5 15.2294C6.33789 15.2294 3.77063 12.6621 3.77063 9.5C3.77063 6.33789 6.33789 3.77063 9.5 3.77063C9.67476 3.77063 9.81667 3.91254 9.81667 4.0873C9.81667 4.2621 9.67476 4.40396 9.5 4.40396C6.68745 4.40396 4.40396 6.68745 4.40396 9.5C4.40396 12.3126 6.68745 14.596 9.5 14.596C9.78623 14.596 10.1811 14.5058 10.5271 14.4112ZM11.5325 14.4006C11.5115 14.4127 11.4856 14.4127 11.4646 14.4006C11.4436 14.3885 11.4307 14.3661 11.4307 14.3418V11.9674L13.5877 13.2142L11.5325 14.4006ZM11.7475 11.419L15.782 4.43357L17.9388 5.67934L13.9044 12.6658L11.7475 11.419Z" fill="white"/>
</svg>
