<svg width="19" height="19" viewBox="0 0 19 19" fill="none" xmlns="http://www.w3.org/2000/svg">
<path fill-rule="evenodd" clip-rule="evenodd" d="M11.3916 1.57427C12.2304 1.77389 13.0315 2.10647 13.7657 2.55851L15.3084 1.87332L17.1266 3.6915L16.4417 5.23375C16.8939 5.96806 17.2265 6.7695 17.4261 7.60843L19 8.21429V10.7856L17.4257 11.3916C17.2261 12.2304 16.8935 13.0315 16.4415 13.7657L17.1266 15.3083L15.3085 17.1266L13.7662 16.4417C13.0319 16.8939 12.2305 17.2264 11.3915 17.426L10.7857 19H8.21437L7.60839 17.4257C6.76962 17.2261 5.96849 16.8935 5.23434 16.4415L3.69162 17.1267L1.87336 15.3085L2.55831 13.7663C2.10611 13.0319 1.77357 12.2305 1.57391 11.3915L0 10.7857V8.21433L1.57415 7.60843C1.77373 6.76958 2.10631 5.96834 2.55843 5.23414L1.87336 3.69162L3.69154 1.87336L5.23422 2.55855C5.96841 2.10651 6.76954 1.77393 7.60831 1.57431L8.21433 0H10.7856L11.3916 1.57427ZM8.47641 13.0902H10.5236C10.6985 13.0902 10.8403 12.9485 10.8403 12.7736C10.8403 12.5987 10.6985 12.4569 10.5236 12.4569H8.47641C8.30154 12.4569 8.15975 12.5987 8.15975 12.7736C8.15975 12.9485 8.30154 13.0902 8.47641 13.0902ZM10.5236 11.586V8.38462H11.3766L9.5 6.22638L7.62343 8.38462H8.47641V11.586H10.5236ZM9.5 4.62365C6.80663 4.62365 4.62365 6.80663 4.62365 9.5C4.62365 12.1934 6.80659 14.3763 9.5 14.3763C12.1934 14.3763 14.3763 12.1934 14.3763 9.5C14.3763 6.80663 12.1934 4.62365 9.5 4.62365Z" fill="white"/>
</svg>
