<svg width="50" height="50" viewBox="0 0 50 50" fill="none" xmlns="http://www.w3.org/2000/svg">
<circle cx="25" cy="25" r="25" fill="#2A2A2A"/>
<path d="M35.5605 32.5711C36.3877 33.3983 36.3877 34.7353 35.5605 35.5625C35.148 35.975 34.6064 36.1824 34.0648 36.1824C33.5232 36.1824 32.9816 35.975 32.569 35.5625L25.0905 28.0818L17.614 35.5603C17.1993 35.9729 16.6577 36.1802 16.1182 36.1802C15.5767 36.1802 15.035 35.9729 14.6225 35.5603C13.7953 34.7332 13.7953 33.394 14.6225 32.5689L22.0989 25.0903L14.6204 17.6118C13.7932 16.7846 13.7932 15.4455 14.6204 14.6204C15.4455 13.7932 16.7846 13.7932 17.6118 14.6204L25.0903 22.0989L32.5689 14.6204C33.3961 13.7932 34.7332 13.7932 35.5603 14.6204C36.3875 15.4455 36.3875 16.7846 35.5603 17.6118L28.0818 25.0903L35.5605 32.5711Z" fill="white"/>
</svg>
