<svg width="19" height="19" viewBox="0 0 19 19" fill="none" xmlns="http://www.w3.org/2000/svg">
<path d="M13.9531 17.8867H13.3965V16.6992H5.60352V17.8867H5.04688C4.7392 17.8867 4.49023 18.1357 4.49023 18.4434C4.49023 18.751 4.7392 19 5.04688 19H13.9531C14.2608 19 14.5098 18.751 14.5098 18.4434C14.5098 18.1357 14.2608 17.8867 13.9531 17.8867Z" fill="white"/>
<path d="M9.57805 4.46456L9.49923 4.30692L9.42368 4.45802C9.28652 4.74043 9.00883 4.76254 9.00512 4.76626L8.83008 4.79234L8.9502 4.91083C9.08201 5.03637 9.14696 5.22571 9.1133 5.41096L9.08558 5.57891L9.24266 5.49738C9.40034 5.41534 9.59308 5.41274 9.75581 5.49738L9.91289 5.57891L9.8841 5.40442C9.85419 5.22559 9.91345 5.04346 10.0423 4.91681L10.1684 4.79234L9.99335 4.76626C9.81396 4.73905 9.65906 4.62654 9.57805 4.46456Z" fill="white"/>
<path d="M18.4434 1.11328H15.6112C15.6158 0.92818 15.623 0.745008 15.623 0.556641C15.623 0.248967 15.3741 0 15.0664 0H3.93359C3.62592 0 3.37695 0.248967 3.37695 0.556641C3.37695 0.745008 3.38415 0.928254 3.38879 1.11328H0.556641C0.248967 1.11328 0 1.36225 0 1.66992V3.08C0 6.18758 2.48893 8.71191 5.55657 8.87519C6.1963 9.75513 6.95808 10.4084 7.82032 10.7795C7.69385 13.3194 6.34622 15.0786 5.91026 15.5859H13.0888C12.653 15.0821 11.3057 13.3334 11.1792 10.7795C12.0417 10.4085 12.8038 9.75528 13.4436 8.87519C16.5111 8.71183 19 6.18754 19 3.08V1.66992C19 1.36225 18.751 1.11328 18.4434 1.11328ZM1.11328 3.08V2.22656H3.44423C3.6103 4.34733 4.09279 6.20662 4.83027 7.6708C2.72817 7.19747 1.11328 5.32308 1.11328 3.08ZM11.744 4.80373L11.0302 5.50659L11.1944 6.49485C11.2292 6.70303 11.1433 6.91288 10.9726 7.03627C10.8014 7.16062 10.5763 7.17721 10.3888 7.08032L9.5 6.61879L8.61123 7.08032C8.42316 7.17599 8.19809 7.16022 8.02743 7.03627C7.85672 6.91288 7.77085 6.70307 7.80562 6.49485L7.96979 5.50659L7.25607 4.80373C7.10292 4.65288 7.05368 4.43027 7.11747 4.23514C7.1827 4.03509 7.35556 3.88832 7.5643 3.85681L8.55471 3.70786L9.0021 2.81256C9.19017 2.4353 9.8099 2.4353 9.99797 2.81256L10.4454 3.70786L11.4358 3.85681C11.6445 3.88836 11.8174 4.03512 11.8826 4.23514C11.9478 4.43572 11.894 4.65589 11.744 4.80373ZM17.8867 3.08C17.8867 5.32301 16.2718 7.1974 14.1698 7.67073C14.9072 6.20654 15.3898 4.3474 15.5558 2.22656H17.8867V3.08Z" fill="white"/>
</svg>
