<svg width="19" height="20" viewBox="0 0 19 20" fill="none" xmlns="http://www.w3.org/2000/svg">
<path fill-rule="evenodd" clip-rule="evenodd" d="M18.2258 11.8171C17.5704 11.4435 17.1633 10.7476 17.1633 10C17.1633 9.25287 17.5703 8.55693 18.2239 8.18372C18.8946 7.80221 19.1736 7.00949 18.8869 6.29899C18.5277 5.4015 18.0385 4.56324 17.4366 3.80715C16.957 3.20517 16.1239 3.04751 15.4532 3.43148C14.7997 3.80715 13.9857 3.80828 13.3303 3.43431C12.6768 3.06034 12.2717 2.36327 12.2736 1.6144C12.2736 0.84831 11.7194 0.212521 10.9532 0.102871C9.99015 -0.0351385 9.01183 -0.034372 8.04493 0.105695C7.28059 0.216111 6.72648 0.851537 6.72835 1.6161C6.72835 2.36404 6.32323 3.0607 5.66975 3.43431C5.01432 3.80787 4.20223 3.80711 3.54684 3.43185C2.87616 3.04787 2.04303 3.2063 1.56341 3.80828C1.26532 4.18338 0.990139 4.58438 0.747496 5.00087C0.504813 5.41663 0.292709 5.8524 0.113102 6.29536C-0.175452 7.00699 0.103561 7.80084 0.774244 8.18332C1.42968 8.55652 1.83668 9.25283 1.83668 10C1.83668 10.7472 1.42968 11.4429 0.77616 11.8167C0.105477 12.1982 -0.173495 12.9905 0.113102 13.7008C0.472357 14.5989 0.961516 15.4372 1.56341 16.1929C2.04303 16.7948 2.87616 16.9525 3.54684 16.5685C4.20036 16.1929 5.01436 16.1921 5.66975 16.5657C6.32323 16.9397 6.72835 17.6367 6.72835 18.3856C6.72644 19.1515 7.28247 19.7873 8.04681 19.8972C8.52642 19.9658 9.00796 20 9.48945 20C9.97865 20 10.4678 19.9648 10.9551 19.8943C11.7194 19.7837 12.2735 19.1488 12.2735 18.3843C12.2716 17.636 12.6767 16.9393 13.3302 16.5657C13.9856 16.1921 14.7977 16.1929 15.4531 16.5682C16.1238 16.9521 16.9569 16.7941 17.4365 16.1917C17.7346 15.8164 18.0098 15.4154 18.2524 14.9995C18.4932 14.5838 18.7092 14.148 18.8868 13.7046C19.1755 12.993 18.8965 12.199 18.2258 11.8171ZM12.0997 11.4855C11.7003 12.1725 11.0525 12.6643 10.2768 12.8696C9.50291 13.0749 8.6927 12.9696 7.99906 12.5726C6.56595 11.7535 6.07296 9.93348 6.90034 8.51457C7.45449 7.56282 8.46722 7.03007 9.50478 7.03007C10.015 7.03007 10.529 7.15787 11.001 7.42747C12.4341 8.24629 12.9271 10.0669 12.0997 11.4855Z" fill="white"/>
</svg>
