<svg width="24" height="24" viewBox="0 0 24 24" fill="none" xmlns="http://www.w3.org/2000/svg">
<path d="M17.5 4.66667H23.3333V7H21V22.1667C21 22.811 20.4777 23.3333 19.8333 23.3333H3.5C2.85567 23.3333 2.33333 22.811 2.33333 22.1667V7H0V4.66667H5.83333V1.16667C5.83333 0.52234 6.35567 0 7 0H16.3333C16.9777 0 17.5 0.52234 17.5 1.16667V4.66667ZM18.6667 7H4.66667V21H18.6667V7ZM8.16667 10.5H10.5V17.5H8.16667V10.5ZM12.8333 10.5H15.1667V17.5H12.8333V10.5ZM8.16667 2.33333V4.66667H15.1667V2.33333H8.16667Z" fill="white"/>
</svg>
