<svg width="19" height="19" viewBox="0 0 19 19" fill="none" xmlns="http://www.w3.org/2000/svg">
<path d="M9.23077 18.4615C4.13262 18.4615 0 14.3289 0 9.23077C0 4.13262 4.13262 0 9.23077 0C14.3289 0 18.4615 4.13262 18.4615 9.23077C18.4615 14.3289 14.3289 18.4615 9.23077 18.4615ZM9.23077 16.6154C11.1893 16.6154 13.0676 15.8374 14.4525 14.4525C15.8374 13.0676 16.6154 11.1893 16.6154 9.23077C16.6154 7.27225 15.8374 5.39394 14.4525 4.00906C13.0676 2.62417 11.1893 1.84615 9.23077 1.84615C7.27225 1.84615 5.39394 2.62417 4.00906 4.00906C2.62417 5.39394 1.84615 7.27225 1.84615 9.23077C1.84615 11.1893 2.62417 13.0676 4.00906 14.4525C5.39394 15.8374 7.27225 16.6154 9.23077 16.6154ZM4.61538 9.23077H6.46154C6.46154 9.96521 6.7533 10.6696 7.27263 11.1889C7.79196 11.7082 8.49632 12 9.23077 12C9.96521 12 10.6696 11.7082 11.1889 11.1889C11.7082 10.6696 12 9.96521 12 9.23077H13.8462C13.8462 10.4548 13.3599 11.6288 12.4943 12.4943C11.6288 13.3599 10.4548 13.8462 9.23077 13.8462C8.00669 13.8462 6.83275 13.3599 5.9672 12.4943C5.10165 11.6288 4.61538 10.4548 4.61538 9.23077Z" fill="#FEFEFE"/>
</svg>
