<svg width="14" height="13" viewBox="0 0 14 13" fill="none" xmlns="http://www.w3.org/2000/svg">
<g filter="url(#filter0_d_33223_780)">
<path d="M6.99993 0.891643C8.37018 -0.338333 10.4877 -0.2975 11.8075 1.02513C13.1274 2.34775 13.1728 4.45492 11.9452 5.82925L6.99929 10.7829L2.05349 5.82925C0.82596 4.45492 0.871845 2.34442 2.19114 1.02513C3.51193 -0.295662 5.62571 -0.340159 6.99993 0.891643ZM10.9818 1.84923C10.1073 0.972966 8.69545 0.937423 7.77926 1.75984L7.00046 2.45889L6.22124 1.76039C5.30242 0.936816 3.89313 0.973047 3.0161 1.85008C2.14708 2.7191 2.10345 4.11093 2.90431 5.0302L6.99929 9.13168L11.0944 5.0302C11.8956 4.11058 11.8521 2.7214 10.9818 1.84923Z" fill="white"/>
</g>
<defs>
<filter id="filter0_d_33223_780" x="-2.83398" y="0" width="19.666" height="18.7827" filterUnits="userSpaceOnUse" color-interpolation-filters="sRGB">
<feFlood flood-opacity="0" result="BackgroundImageFix"/>
<feColorMatrix in="SourceAlpha" type="matrix" values="0 0 0 0 0 0 0 0 0 0 0 0 0 0 0 0 0 0 127 0" result="hardAlpha"/>
<feOffset dy="4"/>
<feGaussianBlur stdDeviation="2"/>
<feComposite in2="hardAlpha" operator="out"/>
<feColorMatrix type="matrix" values="0 0 0 0 0 0 0 0 0 0 0 0 0 0 0 0 0 0 0.25 0"/>
<feBlend mode="normal" in2="BackgroundImageFix" result="effect1_dropShadow_33223_780"/>
<feBlend mode="normal" in="SourceGraphic" in2="effect1_dropShadow_33223_780" result="shape"/>
</filter>
</defs>
</svg>
