<svg width="27" height="25" viewBox="0 0 27 25" fill="none" xmlns="http://www.w3.org/2000/svg">
<path d="M19.3333 0C23.3835 0 26.6667 3.33333 26.6667 8C26.6667 17.3333 16.6667 22.6667 13.3333 24.6667C10 22.6667 0 17.3333 0 8C0 3.33333 3.33333 0 7.33333 0C9.81329 0 12 1.33333 13.3333 2.66667C14.6667 1.33333 16.8533 0 19.3333 0ZM14.5785 20.8051C15.754 20.0647 16.8133 19.3273 17.8065 18.5372C21.7783 15.3773 24 11.9247 24 8C24 4.85435 21.9507 2.66667 19.3333 2.66667C17.8988 2.66667 16.3457 3.42548 15.2189 4.55228L13.3333 6.43791L11.4477 4.55228C10.3209 3.42548 8.76787 2.66667 7.33333 2.66667C4.74541 2.66667 2.66667 4.87533 2.66667 8C2.66667 11.9247 4.88836 15.3773 8.86019 18.5372C9.85333 19.3273 10.9127 20.0647 12.0881 20.8051C12.4861 21.0559 12.8815 21.2972 13.3333 21.5669C13.7852 21.2972 14.1805 21.0559 14.5785 20.8051Z" fill="white"/>
</svg>
