<svg width="20" height="20" viewBox="0 0 20 20" fill="none" xmlns="http://www.w3.org/2000/svg">
<path d="M19.8389 8.1489C19.9279 8.1489 19.9999 8.22097 19.9999 8.30988V10C19.9999 10.6326 19.9412 11.2511 19.8285 11.8511C18.9567 16.5116 14.8509 20.0337 9.92945 19.9997C4.40724 19.9617 -0.0122012 15.4998 2.53076e-05 9.97746C0.0121737 4.46508 4.48474 0 9.99996 0C12.702 0 15.1536 1.07195 16.9536 2.8132C17.0186 2.87605 17.0203 2.97965 16.9563 3.04355L14.5653 5.43461C14.5037 5.49617 14.4043 5.49777 14.3412 5.43773C13.2115 4.36238 11.683 3.70219 9.99996 3.70219C6.52454 3.70219 3.72591 6.48094 3.70232 9.95629C3.67861 13.4545 6.50735 16.2978 9.99996 16.2978C12.8337 16.2978 15.2305 14.4257 16.0209 11.8511H10.1609C10.072 11.8511 9.99996 11.779 9.99996 11.6901V8.30984C9.99996 8.22094 10.072 8.14887 10.1609 8.14887H19.8389V8.1489Z" fill="white"/>
<path d="M19.8388 8.14893H18.6315C18.7204 8.14893 18.7925 8.221 18.7925 8.3099V10C18.7925 10.6326 18.7338 11.2511 18.6211 11.8511C17.7894 16.2973 14.0142 19.7072 9.39551 19.982C9.57223 19.9924 9.75012 19.9985 9.92926 19.9997C14.8507 20.0337 18.9565 16.5116 19.8283 11.8511C19.941 11.2511 19.9997 10.6326 19.9997 10V8.30986C19.9997 8.221 19.9277 8.14893 19.8388 8.14893Z" fill="white"/>
<path d="M4.27921 7.36258L1.24219 5.1682C2.94601 2.08652 6.22928 0 9.9995 0C12.7016 0 15.1532 1.07195 16.9532 2.8132C17.0182 2.87605 17.0198 2.97965 16.9559 3.04355L14.5648 5.43461C14.5034 5.49605 14.4039 5.49797 14.341 5.43805C13.2113 4.3625 11.6827 3.70223 9.9995 3.70223C7.46311 3.70223 5.27678 5.2016 4.27921 7.36258Z" fill="white"/>
<path d="M3.40332 6.72902L4.28008 7.3625C5.19062 5.39008 7.09171 3.96953 9.34522 3.73652C9.36217 3.73469 9.37846 3.73246 9.39572 3.73082C9.1974 3.71199 8.99643 3.70215 8.79315 3.70215C6.50187 3.70215 4.505 4.91008 3.40332 6.72902Z" fill="white"/>
<path d="M15.7466 2.8132C15.8116 2.87605 15.8133 2.97965 15.7494 3.04359L13.8086 4.98433C13.9946 5.12574 14.1725 5.27699 14.3414 5.43777C14.4045 5.49781 14.504 5.49621 14.5655 5.43465L16.9566 3.04359C17.0205 2.97965 17.0188 2.87609 16.9538 2.8132C15.1539 1.07195 12.7023 0 10.0002 0C9.79742 0 9.59625 0.00675781 9.39648 0.0186719C11.859 0.165352 14.0817 1.20258 15.7466 2.8132Z" fill="white"/>
<path d="M17.3354 16.796C15.5092 18.7666 12.8984 20 9.99978 20C6.08471 20 2.69519 17.7501 1.05371 14.4724L4.15429 12.3477C5.08471 14.6628 7.3515 16.2978 9.99978 16.2978C11.6617 16.2978 13.1732 15.6539 14.2984 14.602L17.3354 16.796Z" fill="white"/>
<path d="M4.15453 12.3477L3.24023 12.9742C4.30215 14.9525 6.39038 16.2977 8.79276 16.2977C8.99592 16.2977 9.19674 16.2878 9.39498 16.269C7.01026 16.0416 5.0132 14.4843 4.15453 12.3477Z" fill="white"/>
<path d="M9.99957 20.0002C12.8982 20.0002 15.509 18.7668 17.3352 16.7962L16.5913 16.2588C14.8766 18.3928 12.3044 19.8084 9.39746 19.982C9.59668 19.9939 9.79738 20.0002 9.99957 20.0002Z" fill="white"/>
<path d="M3.70221 10.0003C3.70221 10.83 3.86276 11.6224 4.15452 12.3479L1.0539 14.4727C0.379491 13.127 0 11.6079 0 10.0003C0 8.24775 0.450702 6.60064 1.24265 5.16846L4.27967 7.36283C3.90905 8.16482 3.70221 9.05861 3.70221 10.0003Z" fill="white"/>
<path d="M3.24038 12.9741L4.15467 12.3476C3.86292 11.6221 3.70237 10.8297 3.70237 9.9999C3.70237 9.05826 3.90921 8.16447 4.27983 7.36248L3.40308 6.729C2.83374 7.66904 2.50331 8.77213 2.49527 9.95623C2.48784 11.0482 2.75843 12.0763 3.24038 12.9741Z" fill="white"/>
</svg>
