<svg width="36" height="36" viewBox="0 0 36 36" fill="none" xmlns="http://www.w3.org/2000/svg">
<path d="M33.9072 14.5559L19.5339 14.5552C18.8992 14.5552 18.3848 15.0696 18.3848 15.7043V20.2959C18.3848 20.9304 18.8992 21.445 19.5339 21.445H27.628C26.7417 23.7451 25.0874 25.6714 22.9768 26.8954L26.4282 32.87C31.9645 29.6681 35.2377 24.05 35.2377 17.761C35.2377 16.8655 35.1717 16.2254 35.0397 15.5046C34.9393 14.957 34.4639 14.5559 33.9072 14.5559Z" fill="#167EE6"/>
<path d="M17.6179 28.3438C13.6568 28.3438 10.1988 26.1795 8.34154 22.9769L2.36719 26.4205C5.40749 31.6898 11.103 35.2382 17.6179 35.2382C20.8138 35.2382 23.8295 34.3776 26.4273 32.878V32.8698L22.976 26.8952C21.3973 27.8109 19.5705 28.3438 17.6179 28.3438Z" fill="#12B347"/>
<path d="M26.4286 32.878V32.8698L22.9773 26.8951C21.3986 27.8107 19.5719 28.3437 17.6191 28.3437V35.2381C20.8151 35.2381 23.8309 34.3776 26.4286 32.878Z" fill="#0F993E"/>
<path d="M6.89439 17.6193C6.89439 15.6668 7.42723 13.8402 8.34266 12.2615L2.36831 8.81799C0.860439 11.4076 0 14.4151 0 17.6193C0 20.8235 0.860439 23.8309 2.36831 26.4206L8.34266 22.977C7.42723 21.3984 6.89439 19.5718 6.89439 17.6193Z" fill="#FFD500"/>
<path d="M17.6179 6.89439C20.2009 6.89439 22.5735 7.81223 24.4268 9.33895C24.884 9.71556 25.5485 9.68837 25.9673 9.26958L29.2206 6.01626C29.6957 5.5411 29.6619 4.76332 29.1543 4.32298C26.0493 1.62927 22.0093 0 17.6179 0C11.103 0 5.40749 3.54837 2.36719 8.81768L8.34154 12.2612C10.1988 9.05863 13.6568 6.89439 17.6179 6.89439Z" fill="#FF4B26"/>
<path d="M24.4281 9.33895C24.8852 9.71556 25.5498 9.68837 25.9685 9.26958L29.2219 6.01626C29.6969 5.5411 29.6631 4.76332 29.1556 4.32298C26.0506 1.6292 22.0106 0 17.6191 0V6.89439C20.2021 6.89439 22.5748 7.81223 24.4281 9.33895Z" fill="#D93F21"/>
</svg>
