<svg width="327" height="20" viewBox="0 0 327 20" fill="none" xmlns="http://www.w3.org/2000/svg">
<line x1="-3.37911e-08" y1="9.5" x2="150" y2="9.49999" stroke="#E1E1E1" stroke-opacity="0.27"/>
<path d="M160.362 15.126C159.447 15.126 158.649 14.9207 157.968 14.51C157.296 14.09 156.773 13.502 156.4 12.746C156.036 11.99 155.854 11.094 155.854 10.058C155.854 9.022 156.036 8.126 156.4 7.37C156.764 6.614 157.282 6.03067 157.954 5.62C158.635 5.20933 159.438 5.004 160.362 5.004C161.295 5.004 162.098 5.20933 162.77 5.62C163.451 6.03067 163.974 6.614 164.338 7.37C164.711 8.11667 164.898 9.008 164.898 10.044C164.898 11.08 164.711 11.9807 164.338 12.746C163.965 13.502 163.437 14.09 162.756 14.51C162.084 14.9207 161.286 15.126 160.362 15.126ZM160.362 14.104C161.417 14.104 162.233 13.7493 162.812 13.04C163.391 12.3307 163.68 11.3367 163.68 10.058C163.68 8.77933 163.391 7.79 162.812 7.09C162.233 6.38067 161.417 6.026 160.362 6.026C159.326 6.026 158.519 6.38067 157.94 7.09C157.361 7.79 157.072 8.77933 157.072 10.058C157.072 11.3273 157.361 12.3213 157.94 13.04C158.519 13.7493 159.326 14.104 160.362 14.104ZM166.796 15V8.196H167.902V9.414C168.266 8.59267 169.013 8.14 170.142 8.056L170.548 8.014L170.632 8.994L169.918 9.078C169.274 9.134 168.784 9.33933 168.448 9.694C168.112 10.0393 167.944 10.5153 167.944 11.122V15H166.796Z" fill="#767676"/>
<line x1="176" y1="9.5" x2="327" y2="9.49999" stroke="#E1E1E1" stroke-opacity="0.27"/>
</svg>
