<svg width="19" height="19" viewBox="0 0 19 19" fill="none" xmlns="http://www.w3.org/2000/svg">
<g clip-path="url(#clip0_31234_2184)">
<path d="M18.4383 15.7337L15.9113 13.2067L13.9345 15.1843L12.8151 14.0648L14.7919 12.0873L13.6725 10.9678L11.6957 12.9446L10.5762 11.8252L12.553 9.84843L11.4336 8.72902L9.45683 10.7058L8.33741 9.58639L10.3142 7.6096L9.19479 6.49018L7.21799 8.46777L6.09858 7.34835L8.07537 5.37077L6.91479 4.21018L4.938 6.18697L3.81858 5.06756L5.79537 3.09077L3.26837 0.563765C2.71895 0.0143483 1.90037 -0.147943 1.18312 0.148932C0.465078 0.445807 0.00195312 1.13931 0.00195312 1.91672V19.0001H17.0853C17.862 19.0001 18.5555 18.5362 18.8531 17.8189C19.1508 17.1017 18.9877 16.2831 18.4383 15.7337ZM4.75195 14.2501V9.96402L9.03804 14.2501H4.75195Z" fill="white"/>
</g>
<defs>
<clipPath id="clip0_31234_2184">
<rect width="19" height="19" fill="white"/>
</clipPath>
</defs>
</svg>
