<svg width="120" height="120" viewBox="0 0 120 120" fill="none" xmlns="http://www.w3.org/2000/svg">
<g clip-path="url(#clip0_92_795)">
<circle cx="60" cy="60" r="60" fill="#C3BEFE"/>
<g filter="url(#filter0_d_92_795)">
<rect x="18" y="36" width="84" height="133" rx="12" fill="#6F45F0"/>
</g>
<rect x="33" y="95" width="54" height="4.5" rx="2.25" fill="#F2F1FF"/>
<rect x="42" y="102.5" width="36" height="3" rx="1.5" fill="#F2F1FF"/>
<g clip-path="url(#clip1_92_795)">
<rect x="27" y="48.75" width="66" height="38.25" rx="4.5" fill="#F2F1FF"/>
</g>
<path d="M72.3337 69.9685C71.239 69.9685 70.3483 69.086 70.3483 68.0013C70.3483 66.9153 71.239 66.0328 72.3337 66.0328C72.599 66.0328 72.8537 65.9284 73.0403 65.7435C73.2283 65.5572 73.3337 65.3049 73.3337 65.0419L73.3323 61.4722C73.3323 58.4547 70.8537 56 67.8083 56H52.1923C49.147 56 46.6683 58.4547 46.6683 61.4722L46.667 65.1569C46.667 65.4198 46.7723 65.6721 46.9603 65.8584C47.147 66.0434 47.4017 66.1477 47.667 66.1477C48.799 66.1477 49.6523 66.9444 49.6523 68.0013C49.6523 69.086 48.7617 69.9685 47.667 69.9685C47.115 69.9685 46.667 70.4124 46.667 70.9594V74.5265C46.667 77.544 49.1443 80 52.191 80H67.8097C70.8563 80 73.3337 77.544 73.3337 74.5265V70.9594C73.3337 70.4124 72.8857 69.9685 72.3337 69.9685Z" fill="#6F45F0"/>
<path d="M64.5741 67.4514L63.0021 68.9821L63.3741 71.1461C63.4381 71.5207 63.2874 71.8901 62.9794 72.1114C62.6741 72.3354 62.2754 72.3634 61.9394 72.1847L59.9994 71.1647L58.0554 72.1861C57.9114 72.2621 57.7541 72.3021 57.5981 72.3021C57.3941 72.3021 57.1928 72.2381 57.0194 72.1127C56.7128 71.8901 56.5621 71.5207 56.6261 71.1461L56.9968 68.9821L55.4248 67.4514C55.1528 67.1874 55.0581 66.7994 55.1754 66.4381C55.2941 66.0781 55.6008 65.8221 55.9754 65.7687L58.1434 65.4527L59.1154 63.4834C59.2848 63.1447 59.6234 62.9341 59.9994 62.9341H60.0021C60.3794 62.9354 60.7181 63.1461 60.8848 63.4847L61.8568 65.4527L64.0288 65.7701C64.3994 65.8221 64.7061 66.0781 64.8234 66.4381C64.9421 66.7994 64.8474 67.1874 64.5741 67.4514Z" fill="white"/>
</g>
<defs>
<filter id="filter0_d_92_795" x="-26" y="6" width="192" height="241" filterUnits="userSpaceOnUse" color-interpolation-filters="sRGB">
<feFlood flood-opacity="0" result="BackgroundImageFix"/>
<feColorMatrix in="SourceAlpha" type="matrix" values="0 0 0 0 0 0 0 0 0 0 0 0 0 0 0 0 0 0 127 0" result="hardAlpha"/>
<feOffset dx="10" dy="24"/>
<feGaussianBlur stdDeviation="27"/>
<feComposite in2="hardAlpha" operator="out"/>
<feColorMatrix type="matrix" values="0 0 0 0 0.0889583 0 0 0 0 0.125304 0 0 0 0 0.254167 0 0 0 0.06 0"/>
<feBlend mode="normal" in2="BackgroundImageFix" result="effect1_dropShadow_92_795"/>
<feBlend mode="normal" in="SourceGraphic" in2="effect1_dropShadow_92_795" result="shape"/>
</filter>
<clipPath id="clip0_92_795">
<rect width="120" height="120" rx="60" fill="white"/>
</clipPath>
<clipPath id="clip1_92_795">
<rect x="27" y="48.75" width="66" height="38.25" rx="4.5" fill="white"/>
</clipPath>
</defs>
</svg>
