<svg width="30" height="30" viewBox="0 0 30 30" fill="none" xmlns="http://www.w3.org/2000/svg">
<path d="M0 14.8165C0 6.63358 6.63358 0 14.8165 0C22.9995 0 29.633 6.63358 29.633 14.8165C29.633 22.9995 22.9995 29.633 14.8165 29.633C6.63358 29.633 0 22.9995 0 14.8165Z" fill="#FFD09A" fill-opacity="0.14"/>
<path d="M17.5741 8.23096C19.6083 8.23096 20.7409 9.40311 20.7409 11.4116V18.214C20.7409 20.2554 19.6083 21.4012 17.5741 21.4012H12.0551C10.0533 21.4012 8.8877 20.2554 8.8877 18.214V11.4116C8.8877 9.40311 10.0533 8.23096 12.0551 8.23096H17.5741ZM12.2329 17.2789C12.0354 17.2592 11.8444 17.3513 11.7391 17.5226C11.6337 17.6872 11.6337 17.9045 11.7391 18.0757C11.8444 18.2403 12.0354 18.3391 12.2329 18.3128H17.3957C17.6584 18.2864 17.8566 18.0619 17.8566 17.7991C17.8566 17.5291 17.6584 17.3052 17.3957 17.2789H12.2329ZM17.3957 14.2754H12.2329C11.9491 14.2754 11.7193 14.5066 11.7193 14.7897C11.7193 15.0729 11.9491 15.3034 12.2329 15.3034H17.3957C17.6788 15.3034 17.9093 15.0729 17.9093 14.7897C17.9093 14.5066 17.6788 14.2754 17.3957 14.2754ZM14.2012 11.293H12.2329V11.2996C11.9491 11.2996 11.7193 11.5301 11.7193 11.8133C11.7193 12.0964 11.9491 12.3269 12.2329 12.3269H14.2012C14.485 12.3269 14.7155 12.0964 14.7155 11.806C14.7155 11.5235 14.485 11.293 14.2012 11.293Z" fill="white"/>
</svg>
