<svg width="30" height="30" viewBox="0 0 30 30" fill="none" xmlns="http://www.w3.org/2000/svg">
<rect width="29.633" height="29.633" rx="14.8165" fill="#FFD09A" fill-opacity="0.14"/>
<g clip-path="url(#clip0_57_848)">
<path d="M19.2347 9.52957L15.0003 8.12549L10.7659 9.52957C9.80924 9.8469 9.16699 10.7365 9.16699 11.7445V15.1016C9.16699 18.9323 13.2538 21.2715 14.5045 21.8962L14.9747 22.1319L15.4635 21.9359C16.7229 21.4284 20.8337 19.4363 20.8337 15.101V11.7439C20.8337 10.7359 20.1908 9.8469 19.2347 9.52957ZM15.5837 15.0007V17.4559H14.417V15.0007C13.9019 14.7755 13.542 14.2622 13.542 13.6642C13.542 12.8587 14.1947 12.2059 15.0003 12.2059C15.8059 12.2059 16.4587 12.8587 16.4587 13.6642C16.4587 14.2622 16.0987 14.7761 15.5837 15.0007Z" fill="white"/>
</g>
<defs>
<clipPath id="clip0_57_848">
<rect width="14" height="14" fill="white" transform="translate(8 8.12256)"/>
</clipPath>
</defs>
</svg>
