<svg width="30" height="30" viewBox="0 0 30 30" fill="none" xmlns="http://www.w3.org/2000/svg">
<path d="M0 14.8165C0 6.63358 6.63358 0 14.8165 0C22.9995 0 29.633 6.63358 29.633 14.8165C29.633 22.9995 22.9995 29.633 14.8165 29.633C6.63358 29.633 0 22.9995 0 14.8165Z" fill="#FFD09A" fill-opacity="0.14"/>
<g clip-path="url(#clip0_57_858)">
<path d="M12 15.1226C14.4818 15.1226 16.5 13.1043 16.5 10.6226C16.5 8.14081 14.4818 6.12256 12 6.12256C9.51825 6.12256 7.5 8.14081 7.5 10.6226C7.5 13.1043 9.51825 15.1226 12 15.1226ZM22.5 16.6608V16.6226C22.5 14.9681 21.1545 13.6226 19.5 13.6226C17.8455 13.6226 16.5 14.9681 16.5 16.6226V16.6608C15.645 16.8348 15 17.5923 15 18.4976V21.1226C15 22.7771 16.3455 24.1226 18 24.1226H21C22.6545 24.1226 24 22.7771 24 21.1226V18.4976C24 17.5923 23.355 16.8348 22.5 16.6608ZM18 16.6226C18 15.7953 18.6727 15.1226 19.5 15.1226C20.3273 15.1226 21 15.7953 21 16.6226H18ZM13.5 21.1226C13.5 22.2761 13.9395 23.3253 14.655 24.1226H7.5C6.52575 24.1226 6 23.3501 6 22.6226C6 19.3143 8.69175 16.6226 12 16.6226C12.6623 16.6226 13.2968 16.7343 13.893 16.9331C13.644 17.4048 13.5 17.9373 13.5 18.4976V21.1226Z" fill="white"/>
</g>
<defs>
<clipPath id="clip0_57_858">
<rect width="18" height="18" fill="white" transform="translate(6 6.12256)"/>
</clipPath>
</defs>
</svg>
