<svg width="30" height="30" viewBox="0 0 30 30" fill="none" xmlns="http://www.w3.org/2000/svg">
<path d="M0 14.8165C0 6.63358 6.63358 0 14.8165 0C22.9995 0 29.633 6.63358 29.633 14.8165C29.633 22.9995 22.9995 29.633 14.8165 29.633C6.63358 29.633 0 22.9995 0 14.8165Z" fill="#FFD09A" fill-opacity="0.14"/>
<g clip-path="url(#clip0_57_878)">
<path d="M14.5 7.12207C10.3644 7.12207 7 10.4864 7 14.6221C7 18.7577 10.3644 22.1221 14.5 22.1221H22V14.6221C22 10.4864 18.6356 7.12207 14.5 7.12207ZM15.125 18.9971H13.875V17.7471H15.125V18.9971ZM15.705 14.9377C15.4125 15.0996 15.125 15.6414 15.125 16.0327V16.4971H13.875V16.0327C13.875 15.2896 14.3337 14.2671 15.1012 13.8433C15.5787 13.5802 15.825 13.0589 15.7294 12.5152C15.6431 12.0239 15.2231 11.6039 14.7312 11.5177C14.3525 11.4508 13.985 11.5471 13.6969 11.7889C13.4125 12.0277 13.25 12.3764 13.25 12.7471H12C12 12.0064 12.3256 11.3083 12.8931 10.8321C13.4606 10.3558 14.2112 10.1602 14.9475 10.2864C15.9556 10.4633 16.7838 11.2908 16.9606 12.2996C17.1469 13.3608 16.6425 14.4214 15.705 14.9377Z" fill="white"/>
</g>
<defs>
<clipPath id="clip0_57_878">
<rect width="15" height="15" fill="white" transform="translate(7 7.12207)"/>
</clipPath>
</defs>
</svg>
