<svg width="30" height="30" viewBox="0 0 30 30" fill="none" xmlns="http://www.w3.org/2000/svg">
<path d="M0 14.8165C0 6.63358 6.63358 0 14.8165 0V0C22.9995 0 29.633 6.63358 29.633 14.8165V14.8165C29.633 22.9995 22.9995 29.633 14.8165 29.633V29.633C6.63358 29.633 0 22.9995 0 14.8165V14.8165Z" fill="#FFD09A" fill-opacity="0.14"/>
<path d="M15.192 8.29701L19.5628 9.76348C20.052 9.92686 20.3828 10.3763 20.3855 10.88L20.4133 15.2529C20.422 16.5786 19.9387 17.8643 19.0536 18.8716C18.6466 19.334 18.1248 19.7311 17.4586 20.0863L15.1091 21.3422C15.0355 21.381 14.9546 21.401 14.8731 21.4017C14.7915 21.4023 14.71 21.3829 14.6371 21.3448L12.2657 20.1179C11.5921 19.7686 11.0658 19.3773 10.6547 18.9214C9.75511 17.9243 9.25524 16.6445 9.24663 15.3168L9.21877 10.9471C9.21613 10.4428 9.54098 9.99014 10.0276 9.82031L14.3818 8.30153C14.6404 8.20983 14.9288 8.2079 15.192 8.29701ZM17.2821 12.985C17.0865 12.7971 16.7716 12.7984 16.5787 12.9889L14.3605 15.1754L13.4522 14.3023C13.2567 14.1144 12.9424 14.1164 12.7489 14.3068C12.5559 14.4973 12.5579 14.8034 12.7535 14.9913L14.0151 16.2053C14.1132 16.2996 14.2405 16.3461 14.3678 16.3448C14.4951 16.3442 14.6217 16.2964 14.7185 16.2008L17.2861 13.6695C17.479 13.479 17.477 13.1729 17.2821 12.985Z" fill="white"/>
</svg>
