<svg width="30" height="30" viewBox="0 0 30 30" fill="none" xmlns="http://www.w3.org/2000/svg">
<path d="M0 14.8165C0 6.63358 6.63358 0 14.8165 0C22.9995 0 29.633 6.63358 29.633 14.8165C29.633 22.9995 22.9995 29.633 14.8165 29.633C6.63358 29.633 0 22.9995 0 14.8165Z" fill="#FFD09A" fill-opacity="0.14"/>
<path d="M15.75 11.4971V7.40957C16.3206 7.62582 16.8456 7.95895 17.2906 8.40332L19.4681 10.5821C19.9131 11.0264 20.2463 11.5514 20.4625 12.1221H16.375C16.03 12.1221 15.75 11.8414 15.75 11.4971ZM15.2669 16.7933C14.9037 16.9489 14.5 16.6827 14.5 16.2877V15.2471C12.0275 15.3121 12.0281 18.9327 14.5 18.9971C15.8175 19.0264 16.7656 17.5758 16.2225 16.3839L15.2669 16.7933ZM20.75 13.6752V18.9971C20.75 20.7202 19.3481 22.1221 17.625 22.1221H11.375C9.65188 22.1221 8.25 20.7202 8.25 18.9971V10.2471C8.25 8.52395 9.65188 7.12207 11.375 7.12207H14.1969C14.2988 7.12207 14.3994 7.1302 14.5 7.13707V11.4971C14.5 12.5308 15.3412 13.3721 16.375 13.3721H20.735C20.7419 13.4727 20.75 13.5733 20.75 13.6752ZM17.625 17.1221C17.4937 12.9921 11.5056 12.9933 11.375 17.1221C11.5062 21.2521 17.4944 21.2508 17.625 17.1221Z" fill="white"/>
</svg>
