<svg width="30" height="30" viewBox="0 0 30 30" fill="none" xmlns="http://www.w3.org/2000/svg">
<path d="M0 14.8165C0 6.63358 6.63358 0 14.8165 0C22.9995 0 29.633 6.63358 29.633 14.8165C29.633 22.9995 22.9995 29.633 14.8165 29.633C6.63358 29.633 0 22.9995 0 14.8165Z" fill="#FFD09A" fill-opacity="0.14"/>
<g clip-path="url(#clip0_57_907)">
<path d="M13.51 16.0913C10.402 16.1106 8.72954 17.7888 8.67295 20.9452C8.67004 21.1021 8.7307 21.2526 8.84037 21.3646C8.95004 21.4761 9.09937 21.5391 9.25629 21.5391H17.77C17.927 21.5391 18.0763 21.4766 18.186 21.3646C18.2956 21.2532 18.3563 21.1021 18.3534 20.9452C18.2997 17.8349 16.5824 16.1111 13.51 16.0913Z" fill="white"/>
<path d="M20.55 15.1225L21.0704 14.6015C21.4122 14.2597 21.4122 13.7061 21.0704 13.3643C20.7285 13.0225 20.175 13.0225 19.8331 13.3643L19.3128 13.8846L18.7925 13.3643C18.4506 13.0225 17.897 13.0225 17.5552 13.3643C17.2134 13.7061 17.2134 14.2597 17.5552 14.6015L18.0755 15.1225L17.5552 15.6434C17.2134 15.9852 17.2134 16.5388 17.5552 16.8806C17.7261 17.0515 17.9501 17.1367 18.1741 17.1367C18.3981 17.1367 18.6221 17.0515 18.793 16.8806L19.3134 16.3603L19.8337 16.8806C20.0046 17.0515 20.2286 17.1367 20.4526 17.1367C20.6766 17.1367 20.9006 17.0515 21.0715 16.8806C21.4134 16.5388 21.4134 15.9852 21.0715 15.6434L20.5512 15.1225H20.55Z" fill="white"/>
<path d="M13.517 15.3029C15.6234 15.2906 16.7574 14.1531 16.7965 11.9948C16.7603 9.91813 15.5651 8.71996 13.51 8.70654C11.4327 8.71938 10.2305 9.94438 10.2305 12.0152C10.2305 14.086 11.4333 15.2906 13.517 15.3029Z" fill="white"/>
</g>
<defs>
<clipPath id="clip0_57_907">
<rect width="14" height="14" fill="white" transform="translate(8 8.12256)"/>
</clipPath>
</defs>
</svg>
