<svg width="30" height="30" viewBox="0 0 30 30" fill="none" xmlns="http://www.w3.org/2000/svg">
<path d="M0 14.8165C0 6.63358 6.63358 0 14.8165 0C22.9995 0 29.633 6.63358 29.633 14.8165C29.633 22.9995 22.9995 29.633 14.8165 29.633C6.63358 29.633 0 22.9995 0 14.8165Z" fill="#FFD09A" fill-opacity="0.14"/>
<path d="M14.4835 8.23193C16.1183 8.23193 17.4516 9.54237 17.4516 11.1557V14.31H13.4316C13.1435 14.31 12.9157 14.5339 12.9157 14.8171C12.9157 15.0936 13.1435 15.3241 13.4316 15.3241H17.4516V18.4718C17.4516 20.0851 16.1183 21.4022 14.4701 21.4022H11.2072C9.56572 21.4022 8.23242 20.0917 8.23242 18.4784V11.1623C8.23242 9.54237 9.57242 8.23193 11.2139 8.23193H14.4835ZM19.1243 12.5453C19.3219 12.3412 19.6446 12.3412 19.8421 12.5387L21.765 14.455C21.8637 14.5538 21.9164 14.6789 21.9164 14.8172C21.9164 14.9489 21.8637 15.0806 21.765 15.1728L19.8421 17.089C19.7433 17.1878 19.6116 17.2405 19.4865 17.2405C19.3548 17.2405 19.2231 17.1878 19.1243 17.089C18.9268 16.8915 18.9268 16.5688 19.1243 16.3713L20.178 15.3242L17.4516 15.3241V14.31L20.178 14.3101L19.1243 13.2631C18.9268 13.0655 18.9268 12.7429 19.1243 12.5453Z" fill="white"/>
</svg>
