<svg width="16" height="16" viewBox="0 0 16 16" fill="none" xmlns="http://www.w3.org/2000/svg">
<path d="M12.0233 10.9626L15.2353 14.1746L14.1746 15.2353L10.9626 12.0233C9.80768 12.9473 8.343 13.5 6.75 13.5C3.024 13.5 0 10.476 0 6.75C0 3.024 3.024 0 6.75 0C10.476 0 13.5 3.024 13.5 6.75C13.5 8.343 12.9473 9.80768 12.0233 10.9626ZM10.5185 10.4061C11.4356 9.46095 12 8.1717 12 6.75C12 3.84938 9.65063 1.5 6.75 1.5C3.84938 1.5 1.5 3.84938 1.5 6.75C1.5 9.65063 3.84938 12 6.75 12C8.1717 12 9.46095 11.4356 10.4061 10.5185L10.5185 10.4061Z" fill="white"/>
</svg>
