<svg width="23" height="24" viewBox="0 0 23 24" fill="none" xmlns="http://www.w3.org/2000/svg">
<path d="M18.6875 15.5625C17.2672 15.5625 16.0156 16.246 15.2295 17.2854L8.43285 13.8808C8.5457 13.5045 8.625 13.1146 8.625 12.7031C8.625 12.145 8.50803 11.6145 8.30597 11.1264L15.419 6.93919C16.2105 7.848 17.3741 8.4375 18.6875 8.4375C21.0656 8.4375 23 6.54511 23 4.21875C23 1.89239 21.0656 0 18.6875 0C16.3094 0 14.375 1.89239 14.375 4.21875C14.375 4.75486 14.4878 5.26341 14.6751 5.73553L7.54089 9.93506C6.74997 9.05325 5.60323 8.48438 4.3125 8.48438C1.93444 8.48438 0 10.3768 0 12.7031C0 15.0295 1.93444 16.9219 4.3125 16.9219C5.75623 16.9219 7.02894 16.2183 7.81209 15.1497L14.5864 18.5432C14.4616 18.9373 14.375 19.3477 14.375 19.7812C14.375 22.1076 16.3094 24 18.6875 24C21.0656 24 23 22.1076 23 19.7812C23 17.4549 21.0656 15.5625 18.6875 15.5625Z" fill="white"/>
</svg>
