<svg width="12" height="12" viewBox="0 0 12 12" fill="none" xmlns="http://www.w3.org/2000/svg">
<path d="M2.01983 1.41903C3.04241 0.534847 4.37541 0 5.83333 0C9.05497 0 11.6667 2.61167 11.6667 5.83333C11.6667 7.07939 11.276 8.23422 10.6104 9.18202L8.75 5.83333H10.5C10.5 3.256 8.41068 1.16667 5.83333 1.16667C4.57906 1.16667 3.44037 1.66149 2.6018 2.46658L2.01983 1.41903ZM9.64682 10.2477C8.62423 11.1318 7.29126 11.6667 5.83333 11.6667C2.61167 11.6667 0 9.05497 0 5.83333C0 4.58725 0.390711 3.43243 1.0563 2.48467L2.91667 5.83333H1.16667C1.16667 8.41068 3.256 10.5 5.83333 10.5C7.08762 10.5 8.22628 10.0052 9.06488 9.2001L9.64682 10.2477Z" fill="white"/>
</svg>
