<svg width="23" height="23" viewBox="0 0 23 23" fill="none" xmlns="http://www.w3.org/2000/svg">
<g clip-path="url(#clip0_33222_43)">
<path d="M1.84572 5.5385C1.84572 5.02896 2.26572 4.61542 2.76141 4.61542H19.3916C19.8974 4.61542 20.3073 5.02619 20.3073 5.5385V18.4616C20.3073 18.9711 19.8873 19.3847 19.3916 19.3847H2.76141C2.64061 19.3844 2.52104 19.3603 2.40957 19.3138C2.2981 19.2672 2.19692 19.1991 2.11184 19.1133C2.02677 19.0275 1.95946 18.9258 1.91379 18.814C1.86812 18.7021 1.84499 18.5824 1.84572 18.4616V5.5385ZM3.69187 6.46158V17.5385H18.4611V6.46158H3.69187ZM12.9226 14.7693C13.6571 14.7693 14.3615 14.4775 14.8808 13.9582C15.4001 13.4388 15.6919 12.7345 15.6919 12C15.6919 11.2656 15.4001 10.5612 14.8808 10.0419C14.3615 9.52256 13.6571 9.23081 12.9226 9.23081C12.1882 9.23081 11.4838 9.52256 10.9645 10.0419C10.4452 10.5612 10.1534 11.2656 10.1534 12C10.1534 12.7345 10.4452 13.4388 10.9645 13.9582C11.4838 14.4775 12.1882 14.7693 12.9226 14.7693ZM12.9226 16.6154C11.6986 16.6154 10.5246 16.1292 9.65907 15.2636C8.79352 14.3981 8.30726 13.2241 8.30726 12C8.30726 10.776 8.79352 9.60202 9.65907 8.73647C10.5246 7.87092 11.6986 7.38465 12.9226 7.38465C14.1467 7.38465 15.3207 7.87092 16.1862 8.73647C17.0518 9.60202 17.538 10.776 17.538 12C17.538 13.2241 17.0518 14.3981 16.1862 15.2636C15.3207 16.1292 14.1467 16.6154 12.9226 16.6154ZM3.69187 1.84619H9.23033V3.69235H3.69187V1.84619Z" fill="#FEFEFE"/>
</g>
<defs>
<clipPath id="clip0_33222_43">
<rect width="22.1538" height="22.1538" fill="white"/>
</clipPath>
</defs>
</svg>
